<svg width="16" height="16" viewBox="0 0 16 16" fill="none" xmlns="http://www.w3.org/2000/svg">
<path fill-rule="evenodd" clip-rule="evenodd" d="M4.129 0.5C4.529 0.5 4.855 0.825 4.855 1.226V1.976C5.473 1.952 6.179 1.952 6.979 1.952H9.021C9.821 1.952 10.527 1.952 11.145 1.976V1.226C11.145 1.03345 11.2215 0.848792 11.3576 0.71264C11.4938 0.576489 11.6785 0.5 11.871 0.5C12.0635 0.5 12.2482 0.576489 12.3844 0.71264C12.5205 0.848792 12.597 1.03345 12.597 1.226V2.12C13.317 2.256 13.934 2.511 14.437 3.015C15.02 3.597 15.27 4.33 15.387 5.202C15.5 6.041 15.5 7.107 15.5 8.431V9.021C15.5 10.344 15.5 11.411 15.387 12.25C15.27 13.121 15.02 13.855 14.437 14.437C13.855 15.02 13.121 15.27 12.25 15.387C11.411 15.5 10.344 15.5 9.02 15.5H6.98C5.657 15.5 4.59 15.5 3.75 15.387C2.88 15.27 2.146 15.02 1.564 14.437C0.981 13.855 0.731 13.121 0.614 12.25C0.5 11.411 0.5 10.344 0.5 9.02V8.431C0.5 7.107 0.5 6.041 0.613 5.201C0.73 4.331 0.98 3.597 1.563 3.015C2.066 2.511 2.683 2.255 3.403 2.12V1.226C3.403 0.825 3.728 0.5 4.129 0.5ZM2.589 4.041C2.857 3.773 3.233 3.599 3.943 3.503C4.674 3.405 5.643 3.403 7.033 3.403H8.968C10.357 3.403 11.326 3.405 12.057 3.503C12.767 3.599 13.143 3.773 13.411 4.041C13.679 4.309 13.853 4.685 13.949 5.395C13.9843 5.663 14.0087 5.96667 14.022 6.306H1.978C1.992 5.964 2.015 5.664 2.051 5.395C2.147 4.685 2.321 4.309 2.589 4.041ZM1.952 7.758V8.968C1.952 10.357 1.953 11.326 2.052 12.057C2.147 12.767 2.322 13.143 2.589 13.411C2.857 13.678 3.233 13.853 3.943 13.949C4.674 14.047 5.643 14.049 7.033 14.049H8.968C10.357 14.049 11.326 14.047 12.057 13.949C12.767 13.853 13.143 13.679 13.411 13.411C13.679 13.143 13.853 12.767 13.949 12.057C14.047 11.326 14.049 10.357 14.049 8.967V8.484L14.048 7.758H1.952Z" fill="#131517" fill-opacity="0.36"/>
</svg>
