<svg width="16" height="17" viewBox="0 0 16 17" fill="none" xmlns="http://www.w3.org/2000/svg">
<path fill-rule="evenodd" clip-rule="evenodd" d="M5.75 1.75C5.75 1.55109 5.67098 1.36032 5.53033 1.21967C5.38968 1.07902 5.19891 1 5 1C4.80109 1 4.61032 1.07902 4.46967 1.21967C4.32902 1.36032 4.25 1.55109 4.25 1.75V2.573L3.858 2.617C2.958 2.738 2.2 2.997 1.598 3.599C0.996 4.201 0.737 4.959 0.616 5.859C0.5 6.725 0.5 7.828 0.5 9.195V9.305L0.617 12.642C0.738 13.542 0.997 14.3 1.599 14.902C2.201 15.504 2.959 15.763 3.859 15.884C4.726 16.001 5.828 16.001 7.196 16.001H8.854L12.191 15.884C13.091 15.763 13.849 15.504 14.451 14.902C15.053 14.3 15.312 13.542 15.433 12.642C15.55 11.775 15.55 10.673 15.55 9.305V9.195L15.433 5.858C15.312 4.958 15.053 4.2 14.451 3.598C13.849 2.996 13.091 2.737 12.191 2.616L11.751 2.568V1.75C11.751 1.55109 11.672 1.36032 11.5313 1.21967C11.3907 1.07902 11.1999 1 11.001 1C10.8021 1 10.6113 1.07902 10.4707 1.21967C10.33 1.36032 10.251 1.55109 10.251 1.75V2.506L8.853 2.5H7.195C6.675 2.49867 6.19333 2.50067 5.75 2.506V1.75ZM10.25 4.75V4.006L8.798 4H7.25L5.75 4.007V4.75C5.75 4.94891 5.67098 5.13968 5.53033 5.28033C5.38968 5.42098 5.19891 5.5 5 5.5C4.80109 5.5 4.61032 5.42098 4.46967 5.28033C4.32902 5.13968 4.25 4.94891 4.25 4.75V4.08L4.058 4.103C3.324 4.202 2.936 4.382 2.659 4.659C2.382 4.936 2.202 5.324 2.103 6.058C2.002 6.813 2 7.815 2 9.25L2.103 12.442C2.202 13.176 2.382 13.564 2.659 13.841C2.936 14.118 3.324 14.298 4.058 14.397C4.813 14.498 5.814 14.5 7.25 14.5H8.798L11.99 14.397C12.724 14.298 13.112 14.118 13.389 13.841C13.666 13.564 13.846 13.176 13.945 12.442C14.047 11.687 14.048 10.685 14.048 9.25L13.945 6.058C13.846 5.324 13.666 4.936 13.389 4.659C13.112 4.382 12.724 4.202 11.99 4.103L11.749 4.075V4.75C11.749 4.94891 11.67 5.13968 11.5293 5.28033C11.3887 5.42098 11.1979 5.5 10.999 5.5C10.8001 5.5 10.6093 5.42098 10.4687 5.28033C10.328 5.13968 10.249 4.94891 10.249 4.75H10.25ZM5.25 8.25C5.25 8.44891 5.17098 8.63968 5.03033 8.78033C4.88968 8.92098 4.69891 9 4.5 9C4.30109 9 4.11032 8.92098 3.96967 8.78033C3.82902 8.63968 3.75 8.44891 3.75 8.25C3.75 8.05109 3.82902 7.86032 3.96967 7.71967C4.11032 7.57902 4.30109 7.5 4.5 7.5C4.69891 7.5 4.88968 7.57902 5.03033 7.71967C5.17098 7.86032 5.25 8.05109 5.25 8.25ZM5.25 11.75C5.25 11.9489 5.17098 12.1397 5.03033 12.2803C4.88968 12.421 4.69891 12.5 4.5 12.5C4.30109 12.5 4.11032 12.421 3.96967 12.2803C3.82902 12.1397 3.75 11.9489 3.75 11.75C3.75 11.5511 3.82902 11.3603 3.96967 11.2197C4.11032 11.079 4.30109 11 4.5 11C4.69891 11 4.88968 11.079 5.03033 11.2197C5.17098 11.3603 5.25 11.5511 5.25 11.75ZM8 9C8.19891 9 8.38968 8.92098 8.53033 8.78033C8.67098 8.63968 8.75 8.44891 8.75 8.25C8.75 8.05109 8.67098 7.86032 8.53033 7.71967C8.38968 7.57902 8.19891 7.5 8 7.5C7.80109 7.5 7.61032 7.57902 7.46967 7.71967C7.32902 7.86032 7.25 8.05109 7.25 8.25C7.25 8.44891 7.32902 8.63968 7.46967 8.78033C7.61032 8.92098 7.80109 9 8 9ZM8.75 11.75C8.75 11.9489 8.67098 12.1397 8.53033 12.2803C8.38968 12.421 8.19891 12.5 8 12.5C7.80109 12.5 7.61032 12.421 7.46967 12.2803C7.32902 12.1397 7.25 11.9489 7.25 11.75C7.25 11.5511 7.32902 11.3603 7.46967 11.2197C7.61032 11.079 7.80109 11 8 11C8.19891 11 8.38968 11.079 8.53033 11.2197C8.67098 11.3603 8.75 11.5511 8.75 11.75ZM11.5 9C11.6989 9 11.8897 8.92098 12.0303 8.78033C12.171 8.63968 12.25 8.44891 12.25 8.25C12.25 8.05109 12.171 7.86032 12.0303 7.71967C11.8897 7.57902 11.6989 7.5 11.5 7.5C11.3011 7.5 11.1103 7.57902 10.9697 7.71967C10.829 7.86032 10.75 8.05109 10.75 8.25C10.75 8.44891 10.829 8.63968 10.9697 8.78033C11.1103 8.92098 11.3011 9 11.5 9ZM12.25 11.75C12.25 11.9489 12.171 12.1397 12.0303 12.2803C11.8897 12.421 11.6989 12.5 11.5 12.5C11.3011 12.5 11.1103 12.421 10.9697 12.2803C10.829 12.1397 10.75 11.9489 10.75 11.75C10.75 11.5511 10.829 11.3603 10.9697 11.2197C11.1103 11.079 11.3011 11 11.5 11C11.6989 11 11.8897 11.079 12.0303 11.2197C12.171 11.3603 12.25 11.5511 12.25 11.75Z" fill="#131517" fill-opacity="0.36"/>
</svg>
