<svg width="16" height="16" viewBox="0 0 16 16" fill="none" xmlns="http://www.w3.org/2000/svg">
<path fill-rule="evenodd" clip-rule="evenodd" d="M9.74998 1C9.65148 1 9.55396 1.0194 9.46296 1.05709C9.37197 1.09478 9.28929 1.15003 9.21965 1.21967C9.15 1.28931 9.09476 1.37199 9.05707 1.46299C9.01938 1.55398 8.99998 1.65151 8.99998 1.75C8.99998 1.84849 9.01938 1.94602 9.05707 2.03701C9.09476 2.12801 9.15 2.21069 9.21965 2.28033C9.28929 2.34997 9.37197 2.40522 9.46296 2.44291C9.55396 2.4806 9.65148 2.5 9.74998 2.5C10.862 2.5 11.692 3.326 11.692 4.489C11.692 5.05 11.499 5.384 11.261 5.707L11.154 5.847L10.834 6.289C10.647 6.56698 10.5442 6.89303 10.538 7.228C10.538 7.997 10.904 8.525 11.385 8.878C11.765 9.157 12.245 9.345 12.621 9.492L12.743 9.54C13.187 9.716 13.499 9.858 13.712 10.046C13.88 10.195 14 10.384 14 10.75C14 10.9489 14.079 11.1397 14.2196 11.2803C14.3603 11.421 14.5511 11.5 14.75 11.5C14.9489 11.5 15.1397 11.421 15.2803 11.2803C15.421 11.1397 15.5 10.9489 15.5 10.75C15.5 9.942 15.187 9.348 14.706 8.923C14.269 8.536 13.716 8.312 13.295 8.145L13.205 8.109C12.778 7.94 12.486 7.825 12.274 7.669C12.106 7.545 12.039 7.437 12.039 7.228C12.039 7.225 12.039 7.219 12.045 7.201C12.0604 7.16208 12.0798 7.12488 12.103 7.09C12.157 7.004 12.21 6.936 12.284 6.84L12.469 6.596C12.808 6.136 13.192 5.492 13.192 4.488C13.192 2.522 11.715 1 9.74998 1ZM6.32098 1.75C4.19198 1.75 2.57098 3.372 2.57098 5.5C2.57098 6.583 2.99098 7.275 3.36398 7.771L3.56698 8.034L3.77498 8.316C3.85598 8.442 3.85698 8.487 3.85698 8.5C3.85698 8.75 3.77098 8.888 3.56498 9.037C3.31898 9.215 2.98298 9.345 2.51298 9.528L2.40698 9.569C1.93698 9.752 1.33498 9.993 0.860977 10.405C0.341977 10.856 0.000976562 11.488 0.000976562 12.357C0.000976562 13.038 0.310977 13.581 0.765977 13.979C1.20098 14.359 1.76998 14.613 2.35698 14.789C3.53298 15.142 5.01198 15.249 6.32298 15.249C7.63398 15.249 9.11198 15.142 10.288 14.789C10.875 14.613 11.444 14.359 11.879 13.979C12.334 13.581 12.644 13.037 12.644 12.357C12.644 11.489 12.302 10.857 11.784 10.405C11.31 9.992 10.707 9.751 10.238 9.569L10.132 9.528C9.66198 9.346 9.32598 9.215 9.07998 9.037C8.87398 8.888 8.78798 8.75 8.78798 8.5C8.78798 8.487 8.78898 8.443 8.86998 8.316C8.93516 8.21901 9.00456 8.12492 9.07798 8.034L9.28098 7.771C9.65398 7.274 10.074 6.582 10.074 5.5C10.074 3.372 8.45298 1.75 6.32398 1.75H6.32098ZM4.07098 5.5C4.07098 4.2 5.02098 3.25 6.32098 3.25C7.62098 3.25 8.57098 4.2 8.57098 5.5C8.57098 6.132 8.34798 6.511 8.07798 6.871L7.95498 7.03L7.60498 7.505C7.44498 7.754 7.28498 8.084 7.28498 8.5C7.28498 9.321 7.68098 9.879 8.19898 10.253C8.61198 10.551 9.13598 10.753 9.55598 10.914L9.69298 10.967C10.187 11.159 10.549 11.32 10.798 11.537C11.003 11.715 11.143 11.94 11.143 12.357C11.143 12.534 11.078 12.686 10.89 12.851C10.682 13.033 10.341 13.208 9.85598 13.353C8.88898 13.643 7.58298 13.75 6.32198 13.75C5.06098 13.75 3.75398 13.643 2.78798 13.353C2.30298 13.207 1.96198 13.033 1.75398 12.851C1.56598 12.687 1.50098 12.534 1.50098 12.357C1.50098 11.94 1.64198 11.715 1.84598 11.537C2.09498 11.32 2.45698 11.159 2.95098 10.967L3.08798 10.914C3.50798 10.753 4.03198 10.551 4.44498 10.253C4.96198 9.879 5.35898 9.321 5.35898 8.5C5.35898 8.084 5.19898 7.754 5.03898 7.505C4.92904 7.34182 4.81227 7.18334 4.68898 7.03L4.56598 6.871C4.29598 6.511 4.07298 6.131 4.07298 5.5H4.07098Z" fill="#131517" fill-opacity="0.36"/>
</svg>
