<svg width="16" height="17" viewBox="0 0 16 17" fill="none" xmlns="http://www.w3.org/2000/svg">
<path fill-rule="evenodd" clip-rule="evenodd" d="M3.204 1.75C1.44 1.75 0.251 3.438 0.251 5.193V6.645C0.25 6.713 0.25 6.808 0.258 6.892C0.270483 7.05879 0.326327 7.21943 0.42 7.358C0.562 7.563 0.768 7.656 0.831 7.685L0.836 7.687C0.919 7.725 1.021 7.763 1.113 7.797L1.129 7.804C1.306 7.87 1.523 8.113 1.523 8.5C1.523 8.887 1.306 9.13 1.129 9.196L1.112 9.203C1.021 9.237 0.919 9.275 0.836 9.313L0.831 9.315C0.768 9.344 0.562 9.437 0.42 9.642C0.32649 9.78028 0.270654 9.94055 0.258 10.107C0.25 10.191 0.25 10.287 0.25 10.354V11.807C0.25 13.562 1.438 15.25 3.204 15.25H12.796C14.562 15.25 15.75 13.562 15.75 11.807V10.354C15.75 10.286 15.75 10.191 15.742 10.107C15.7293 9.94055 15.6735 9.78028 15.58 9.642C15.438 9.437 15.232 9.344 15.169 9.315L15.164 9.312C15.0731 9.27261 14.9811 9.23592 14.888 9.202L14.871 9.196C14.694 9.13 14.477 8.887 14.477 8.5C14.477 8.113 14.694 7.87 14.871 7.804L14.888 7.797C14.979 7.763 15.081 7.725 15.164 7.687L15.169 7.685C15.3327 7.61457 15.4746 7.50167 15.58 7.358C15.6737 7.21943 15.7295 7.05879 15.742 6.892C15.75 6.808 15.75 6.713 15.75 6.645V5.193C15.75 3.438 14.56 1.75 12.796 1.75H3.204ZM1.751 5.193C1.751 3.972 2.535 3.25 3.204 3.25H9.25V6.258C9.25 6.45691 9.32902 6.64768 9.46967 6.78833C9.61032 6.92898 9.80109 7.008 10 7.008C10.1989 7.008 10.3897 6.92898 10.5303 6.78833C10.671 6.64768 10.75 6.45691 10.75 6.258V3.25H12.796C13.465 3.25 14.249 3.972 14.249 5.193V6.437C13.461 6.781 12.977 7.615 12.977 8.5C12.977 9.385 13.461 10.22 14.25 10.563V11.807C14.25 13.028 13.466 13.75 12.796 13.75H10.75V11.258C10.75 11.0591 10.671 10.8683 10.5303 10.7277C10.3897 10.587 10.1989 10.508 10 10.508C9.80109 10.508 9.61032 10.587 9.46967 10.7277C9.32902 10.8683 9.25 11.0591 9.25 11.258V13.75H3.204C2.534 13.75 1.75 13.028 1.75 11.807V10.563C2.54 10.219 3.023 9.385 3.023 8.5C3.023 7.615 2.539 6.78 1.75 6.437L1.751 5.193Z" fill="#131517"/>
</svg>
